<?xml version="1.0" encoding="UTF-8"?>
<svg version="1.1" xmlns="http://www.w3.org/2000/svg" width="222" height="144">
<path d="M0 0 C5.31794683 2.56401008 8.6703154 6.27414657 11.25 11.5625 C12 14 12 14 12 18 C9.69 18.33 7.38 18.66 5 19 C4.773125 20.11375 4.54625 21.2275 4.3125 22.375 C3 26 3 26 0.375 27.4375 C-0.40875 27.623125 -1.1925 27.80875 -2 28 C-2 28.66 -2 29.32 -2 30 C-1.0925 30.37125 -0.185 30.7425 0.75 31.125 C4.55618139 33.32087388 6.01343029 35.10326711 8 39 C8.25 42.375 8.25 42.375 8 45 C8.94875 44.938125 9.8975 44.87625 10.875 44.8125 C11.90625 44.874375 12.9375 44.93625 14 45 C16 48 16 48 16 51 C21.2033521 48.68883368 25.25003399 46.43177801 29 42 C29.33 41.01 29.66 40.02 30 39 C28.35 38.67 26.7 38.34 25 38 C24.20046862 34.71303767 23.90341064 33.28976808 25 30 C27.925916 28.537042 29.75617347 28.55476891 33 29 C36.59020102 32.04386608 38.31954718 34.39862803 38.75 39.125 C38.24119515 48.50608946 30.38954141 57.97800873 23.875 64.3125 C20.2360817 67.29967174 17.27507578 67.88642213 12.6171875 67.58203125 C4.51052293 65.77920585 -1.61411252 60.02791381 -7 54 C-8.99983534 54.79117904 -8.99983534 54.79117904 -11 56 C-12.1874822 59.56244661 -12.35067208 62.97318643 -12.5625 66.6875 C-12.7790625 70.3071875 -12.7790625 70.3071875 -13 74 C-21.415 74.99 -21.415 74.99 -30 76 C-27.86148963 64.50461869 -25.01475997 53.36526169 -21.8125 42.125 C-21.1179247 39.66860449 -20.42493576 37.2117704 -19.733078 34.75460815 C-19.30653445 33.24163668 -18.87814547 31.72918398 -18.44770813 30.21731567 C-17.43475234 27.15547889 -17.43475234 27.15547889 -17 24 C-19.97 24 -22.94 24 -26 24 C-25.67 20.04 -25.34 16.08 -25 12 C-23.02 12.99 -21.04 13.98 -19 15 C-18.95875 13.824375 -18.9175 12.64875 -18.875 11.4375 C-18.29598435 7.21895744 -17.00628803 4.39542463 -14.07421875 1.29296875 C-9.73971643 -1.40895266 -4.86395447 -0.84183827 0 0 Z " fill="#080808" transform="translate(124,49)"/>
<path d="M0 0 C0.625 1.8125 0.625 1.8125 1 4 C0.34 4.99 -0.32 5.98 -1 7 C-4.2578125 7.29296875 -4.2578125 7.29296875 -8.125 7.1875 C-10.04699219 7.14689453 -10.04699219 7.14689453 -12.0078125 7.10546875 C-12.99523437 7.07066406 -13.98265625 7.03585938 -15 7 C-15.13664062 7.77085938 -15.27328125 8.54171875 -15.4140625 9.3359375 C-16.38962376 13.77148937 -18.66138449 16.97934787 -22 20 C-21.21625 20.103125 -20.4325 20.20625 -19.625 20.3125 C-17 21 -17 21 -15 24 C-14.96422244 26.71909473 -15.0481661 29.29720581 -15.25 32 C-15.3008374 32.78294434 -15.3516748 33.56588867 -15.40405273 34.37255859 C-16.01882019 43.27213331 -16.98806594 52.13820852 -18 61 C-13.545 60.505 -13.545 60.505 -9 60 C-9 71.88 -9 83.76 -9 96 C-8.34 96 -7.68 96 -7 96 C-7.495 97.98 -7.495 97.98 -8 100 C-13.94 100.495 -13.94 100.495 -20 101 C-20.18175781 99.54207031 -20.36351563 98.08414063 -20.55078125 96.58203125 C-20.80408815 94.65877513 -21.05802761 92.73560225 -21.3125 90.8125 C-21.43044922 89.85279297 -21.54839844 88.89308594 -21.66992188 87.90429688 C-22.3436125 82.91207663 -22.98045981 79.16907024 -26 75 C-27.17942085 71.46173745 -27.11289189 68.65851274 -27.09765625 64.92578125 C-27.0962413 64.2419487 -27.09482635 63.55811615 -27.09336853 62.8535614 C-27.08777876 60.67316278 -27.07522822 58.49286749 -27.0625 56.3125 C-27.05748367 54.83268378 -27.052921 53.35286594 -27.04882812 51.87304688 C-27.03781271 48.24866443 -27.02055512 44.6243423 -27 41 C-27.7945459 40.69908447 -28.5890918 40.39816895 -29.40771484 40.08813477 C-34.0119387 38.15547083 -35.98748418 34.25093157 -37.98046875 29.8203125 C-39.85372882 24.73700584 -40.62967617 20.39722433 -40 15 C-34.65827272 6.71645189 -22.95012731 2.68239714 -13.6875 0.421875 C-9.12018202 -0.29508771 -4.60651127 -0.24057216 0 0 Z " fill="#F39D1D" transform="translate(102,25)"/>
<path d="M0 0 C0.33 0.66 0.66 1.32 1 2 C0 3.5 0 3.5 -2 5 C-4.66666667 5 -7.33333333 5 -10 5 C-12.38540831 6.27221776 -12.80881628 7.42644884 -13.6484375 9.9453125 C-14.19858151 11.93869143 -14.60705335 13.96977565 -15 16 C-14.67 16.33 -14.34 16.66 -14 17 C-13.91148471 19.59359322 -13.88474055 22.16039691 -13.90234375 24.75390625 C-13.9037587 25.52935287 -13.90517365 26.3047995 -13.90663147 27.10374451 C-13.91224655 29.59003494 -13.92480154 32.0762366 -13.9375 34.5625 C-13.94251306 36.24413933 -13.9470763 37.92578006 -13.95117188 39.60742188 C-13.96222087 43.73831566 -13.97949555 47.86914276 -14 52 C-12.5459375 52.433125 -12.5459375 52.433125 -11.0625 52.875 C-8 54 -8 54 -7 56 C-6.85747537 58.08056569 -6.77367251 60.16528171 -6.71875 62.25 C-6.68136719 63.4978125 -6.64398438 64.745625 -6.60546875 66.03125 C-6.53515625 68.67708333 -6.46484375 71.32291667 -6.39453125 73.96875 C-6.35714844 75.2165625 -6.31976563 76.464375 -6.28125 77.75 C-6.25095703 78.89984375 -6.22066406 80.0496875 -6.18945312 81.234375 C-6.18115081 83.95856541 -6.18115081 83.95856541 -5 86 C-5.60578253 88.01927511 -6.26919734 90.02253397 -7 92 C-7.66 92 -8.32 92 -9 92 C-9 80.12 -9 68.24 -9 56 C-13.455 56.495 -13.455 56.495 -18 57 C-17.89849996 55.05206308 -17.79681309 53.10413576 -17.69433594 51.15625 C-17.60577244 49.45583088 -17.51921357 47.75530627 -17.43457031 46.0546875 C-17.21104781 41.64297337 -16.95260678 37.23977611 -16.60546875 32.8359375 C-16.54609131 32.02302246 -16.48671387 31.21010742 -16.42553711 30.37255859 C-16.31026864 28.81459055 -16.18256299 27.25748298 -16.04125977 25.70166016 C-15.70491471 21.66183729 -15.70491471 21.66183729 -17.296875 18.0625 C-19.12977134 16.82683266 -19.12977134 16.82683266 -22 16 C-21.67 15.01 -21.34 14.02 -21 13 C-20.34 13 -19.68 13 -19 13 C-18.71125 12.278125 -18.4225 11.55625 -18.125 10.8125 C-17.08333333 8.20833333 -16.04166667 5.60416667 -15 3 C-10.38 3 -5.76 3 -1 3 C-0.67 2.01 -0.34 1.02 0 0 Z " fill="#FAE2AD" transform="translate(102,29)"/>
<path d="M0 0 C0.625 1.8125 0.625 1.8125 1 4 C0.34 4.99 -0.32 5.98 -1 7 C-4.2578125 7.29296875 -4.2578125 7.29296875 -8.125 7.1875 C-10.04699219 7.14689453 -10.04699219 7.14689453 -12.0078125 7.10546875 C-12.99523437 7.07066406 -13.98265625 7.03585938 -15 7 C-15.13664062 7.76828125 -15.27328125 8.5365625 -15.4140625 9.328125 C-16.0901396 12.41103658 -17.15633527 14.44723345 -19 17 C-19.99 17.33 -20.98 17.66 -22 18 C-22 17.01 -22 16.02 -22 15 C-21.01 14.34 -20.02 13.68 -19 13 C-18.34 10.69 -17.68 8.38 -17 6 C-12.05 5.34 -7.1 4.68 -2 4 C-2 3.34 -2 2.68 -2 2 C-12.44342336 2.7080287 -22.09601128 5.45974035 -31 11 C-31.66 11 -32.32 11 -33 11 C-33 11.66 -33 12.32 -33 13 C-34.32 13.33 -35.64 13.66 -37 14 C-37 18.95 -37 23.9 -37 29 C-40.44905567 25.55094433 -40.15092006 21.86507614 -40.42578125 17.09765625 C-39.77599459 13.89641372 -38.25589493 12.33330309 -36 10 C-24.71867138 2.95815156 -13.30505002 -0.69484787 0 0 Z " fill="#E0A33F" transform="translate(102,25)"/>
<path d="M0 0 C2.475 0.99 2.475 0.99 5 2 C5.01458252 2.90242432 5.02916504 3.80484863 5.04418945 4.73461914 C5.10555577 8.11020007 5.17976329 11.48500696 5.26245117 14.86010742 C5.29552983 16.31572994 5.32361397 17.77147547 5.34643555 19.22729492 C5.38029921 21.33044436 5.4326236 23.43248375 5.48828125 25.53515625 C5.51446533 26.797229 5.54064941 28.05930176 5.56762695 29.35961914 C6.04812517 33.40519165 6.99378605 37.99378605 10 41 C10.40501894 43.39759386 10.75408183 45.77726914 11.0625 48.1875 C11.15337891 48.84814453 11.24425781 49.50878906 11.33789062 50.18945312 C11.85836141 54.15364041 12.09322295 58.00384268 12 62 C11.34 61.67 10.68 61.34 10 61 C9.63696289 59.22167969 9.63696289 59.22167969 9.47265625 56.921875 C9.40240234 56.09042969 9.33214844 55.25898437 9.25976562 54.40234375 C9.12943224 52.64994043 9.00177802 50.89733556 8.87695312 49.14453125 C8.46511501 44.32862244 7.96392841 40.9931777 5 37 C3.53503338 34.07006676 3.70284538 31.32432408 3.53515625 28.05859375 C3.45667541 26.65688448 3.37789018 25.25519223 3.29882812 23.85351562 C3.1788384 21.63924933 3.06186705 19.42491952 2.95043945 17.21020508 C2.84126712 15.07577945 2.72028133 12.94228268 2.59765625 10.80859375 C2.53070557 9.52782959 2.46375488 8.24706543 2.39477539 6.92749023 C2.26449951 5.96141846 2.13422363 4.99534668 2 4 C1.34 3.67 0.68 3.34 0 3 C0 2.01 0 1.02 0 0 Z " fill="#FAE3AA" transform="translate(70,64)"/>
<path d="M0 0 C-0.78503906 0.30292969 -1.57007812 0.60585938 -2.37890625 0.91796875 C-12.64191347 4.55224629 -12.64191347 4.55224629 -20 12 C-20.49489718 18.80483621 -19.00188136 24.51771751 -17 31 C-17.99 31 -18.98 31 -20 31 C-21.75307246 26.46834234 -22.2450941 22.72337627 -22.1875 17.875 C-22.18105469 16.67617188 -22.17460938 15.47734375 -22.16796875 14.2421875 C-22.03261095 11.62946722 -21.77128695 9.48045882 -21 7 C-19.68 6.67 -18.36 6.34 -17 6 C-17 5.01 -17 4.02 -17 3 C-11.38129492 -0.15195651 -6.31730154 -1.82070699 0 0 Z " fill="#FDF2CC" transform="translate(83,28)"/>
<path d="M0 0 C0.33 0 0.66 0 1 0 C1 8.25 1 16.5 1 25 C1.66 25 2.32 25 3 25 C2.67 26.32 2.34 27.64 2 29 C-1.96 29.33 -5.92 29.66 -10 30 C-10.33 27.03 -10.66 24.06 -11 21 C-10.34 21.33 -9.68 21.66 -9 22 C-9 23.65 -9 25.3 -9 27 C-6.36 27.33 -3.72 27.66 -1 28 C-1.00523682 27.3294458 -1.01047363 26.6588916 -1.01586914 25.96801758 C-1.03671605 22.916188 -1.04968469 19.86437344 -1.0625 16.8125 C-1.07087891 15.75740234 -1.07925781 14.70230469 -1.08789062 13.61523438 C-1.09111328 12.59365234 -1.09433594 11.57207031 -1.09765625 10.51953125 C-1.10289307 9.58214111 -1.10812988 8.64475098 -1.11352539 7.67895508 C-1.00082657 5.01950523 -0.59376649 2.59079427 0 0 Z " fill="#DC9D3E" transform="translate(92,96)"/>
<path d="M0 0 C0.33 0.66 0.66 1.32 1 2 C0 3.5 0 3.5 -2 5 C-4.66666667 5 -7.33333333 5 -10 5 C-12.35759507 6.25738404 -12.79747863 7.38082639 -13.61328125 9.875 C-14.46290129 13.01917213 -15 15.7279911 -15 19 C-17.31 18.01 -19.62 17.02 -22 16 C-21.67 15.01 -21.34 14.02 -21 13 C-20.34 13 -19.68 13 -19 13 C-18.71125 12.278125 -18.4225 11.55625 -18.125 10.8125 C-17.08333333 8.20833333 -16.04166667 5.60416667 -15 3 C-10.38 3 -5.76 3 -1 3 C-0.67 2.01 -0.34 1.02 0 0 Z " fill="#FCF2CE" transform="translate(102,29)"/>
<path d="M0 0 C4.875 1.75 4.875 1.75 6 4 C5.96115531 6.70418808 5.85552415 9.36569829 5.6875 12.0625 C5.64117432 12.8551123 5.59484863 13.64772461 5.54711914 14.46435547 C5.02626592 22.68262297 4.06431466 30.83680991 3 39 C2.67 39 2.34 39 2 39 C1.9727384 36.95840905 1.95348655 34.91671037 1.9375 32.875 C1.92589844 31.73804687 1.91429688 30.60109375 1.90234375 29.4296875 C1.99516174 26.16991958 2.45440349 23.20939125 3 20 C3.25226066 17.04494654 3.40939757 14.08665359 3.5625 11.125 C3.60568359 10.34125 3.64886719 9.5575 3.69335938 8.75 C3.79853351 6.83349351 3.89967925 4.91676667 4 3 C2.68 2.67 1.36 2.34 0 2 C0 1.34 0 0.68 0 0 Z " fill="#DD9F3D" transform="translate(81,45)"/>
<path d="M0 0 C0.33 0 0.66 0 1 0 C1.02505615 0.83772949 1.0501123 1.67545898 1.07592773 2.53857422 C1.17100357 5.64352256 1.27024025 8.74830181 1.37231445 11.85302734 C1.43698251 13.85894807 1.49683106 15.86502228 1.55664062 17.87109375 C1.59853516 19.12792969 1.64042969 20.38476562 1.68359375 21.6796875 C1.72025146 22.84226074 1.75690918 24.00483398 1.79467773 25.20263672 C1.81821659 27.9535501 1.81821659 27.9535501 3 30 C2.39421747 32.01927511 1.73080266 34.02253397 1 36 C0.34 36 -0.32 36 -1 36 C-1.13873856 23.96057567 -0.73868295 12.01678877 0 0 Z " fill="#FEF9D4" transform="translate(94,85)"/>
<path d="M0 0 C5.94 0 11.88 0 18 0 C18.66 1.32 19.32 2.64 20 4 C19.34 4.66 18.68 5.32 18 6 C17.67 5.01 17.34 4.02 17 3 C10.88909517 2.90054585 5.02596573 2.9287172 -1 4 C-0.67 2.68 -0.34 1.36 0 0 Z " fill="#FDF2CD" transform="translate(85,23)"/>
<path d="M0 0 C0.99 0.495 0.99 0.495 2 1 C3.48673148 7.83702596 3.1260372 15.16523243 3.0625 22.125 C3.05798828 23.08148438 3.05347656 24.03796875 3.04882812 25.0234375 C3.03720017 27.34902758 3.02086102 29.6744776 3 32 C2.67 32 2.34 32 2 32 C1.90912109 30.71802734 1.90912109 30.71802734 1.81640625 29.41015625 C1.73261719 28.30542969 1.64882812 27.20070313 1.5625 26.0625 C1.48128906 24.96035156 1.40007812 23.85820313 1.31640625 22.72265625 C1.29581916 20.08890097 1.29581916 20.08890097 0 19 C-0.08651611 17.58429877 -0.10704904 16.164405 -0.09765625 14.74609375 C-0.09443359 13.89208984 -0.09121094 13.03808594 -0.08789062 12.15820312 C-0.07951172 11.26037109 -0.07113281 10.36253906 -0.0625 9.4375 C-0.05798828 8.53580078 -0.05347656 7.63410156 -0.04882812 6.70507812 C-0.03700225 4.46998686 -0.0205222 2.23502563 0 0 Z " fill="#FDFDE3" transform="translate(71,67)"/>
<path d="M0 0 C2 4 2 4 2 8 C2.66 7.34 3.32 6.68 4 6 C5.39460991 8.78921982 4.58060045 10.12077103 3.6875 13.0625 C3.42324219 13.96097656 3.15898438 14.85945313 2.88671875 15.78515625 C2 18 2 18 0 19 C0 12.73 0 6.46 0 0 Z " fill="#FAF9F0" transform="translate(95,95)"/>
<path d="M0 0 C0.02725341 1.7290774 0.04650987 3.45828176 0.0625 5.1875 C0.07410156 6.15042969 0.08570312 7.11335938 0.09765625 8.10546875 C0.00486622 10.85576513 -0.37888315 13.32479591 -1 16 C-1.33 16 -1.66 16 -2 16 C-2 11.38 -2 6.76 -2 2 C-4.31 2 -6.62 2 -9 2 C-5.83390538 0.12379578 -3.64167599 -0.09662822 0 0 Z " fill="#E19F2D" transform="translate(93,85)"/>
<path d="M0 0 C1.49080078 0.02707031 1.49080078 0.02707031 3.01171875 0.0546875 C3.77097656 0.07789062 4.53023437 0.10109375 5.3125 0.125 C5.90234375 2.015625 5.90234375 2.015625 6.3125 4.125 C4.875 5.875 4.875 5.875 3.3125 7.125 C3.3125 5.475 3.3125 3.825 3.3125 2.125 C-0.6475 2.125 -4.6075 2.125 -8.6875 2.125 C-5.26655758 -0.15562828 -4.00562778 -0.09425007 0 0 Z " fill="#D6A149" transform="translate(96.6875,24.875)"/>
<path d="M0 0 C-0.99 1.485 -0.99 1.485 -2 3 C-4.6015625 3.29296875 -4.6015625 3.29296875 -7.625 3.1875 C-9.12933594 3.14689453 -9.12933594 3.14689453 -10.6640625 3.10546875 C-11.43492188 3.07066406 -12.20578125 3.03585938 -13 3 C-13 2.34 -13 1.68 -13 1 C-8.60563789 0.14256349 -4.47427924 -0.08948558 0 0 Z " fill="#F9E7C5" transform="translate(95,125)"/>
<path d="M0 0 C0.33 0 0.66 0 1 0 C1.33 3.3 1.66 6.6 2 10 C2.66 9.67 3.32 9.34 4 9 C3.34 11.64 2.68 14.28 2 17 C1.34 17 0.68 17 0 17 C0 11.39 0 5.78 0 0 Z " fill="#F2E5BA" transform="translate(93,104)"/>
<path d="M0 0 C2.475 0.99 2.475 0.99 5 2 C4.67 5.96 4.34 9.92 4 14 C3.67 14 3.34 14 3 14 C2.92652344 12.93458984 2.92652344 12.93458984 2.8515625 11.84765625 C2.73941406 10.46900391 2.73941406 10.46900391 2.625 9.0625 C2.55539063 8.14597656 2.48578125 7.22945313 2.4140625 6.28515625 C2.27742188 5.53105469 2.14078125 4.77695313 2 4 C1.34 3.67 0.68 3.34 0 3 C0 2.01 0 1.02 0 0 Z " fill="#FEF2BC" transform="translate(70,64)"/>
<path d="M0 0 C1.670625 0.061875 1.670625 0.061875 3.375 0.125 C4.035 1.445 4.695 2.765 5.375 4.125 C4.715 4.785 4.055 5.445 3.375 6.125 C3.045 5.135 2.715 4.145 2.375 3.125 C-0.265 2.795 -2.905 2.465 -5.625 2.125 C-3.625 0.125 -3.625 0.125 0 0 Z " fill="#F9E8C3" transform="translate(99.625,22.875)"/>
<path d="M0 0 C0.33 0 0.66 0 1 0 C1 4.29 1 8.58 1 13 C1.66 13 2.32 13 3 13 C2.67 14.32 2.34 15.64 2 17 C1.34 17 0.68 17 0 17 C0 11.39 0 5.78 0 0 Z " fill="#DDB775" transform="translate(92,108)"/>
<path d="M0 0 C4.875 1.75 4.875 1.75 6 4 C6.039992 5.99960012 6.04346799 8.00047242 6 10 C5.34 10 4.68 10 4 10 C4 7.69 4 5.38 4 3 C2.68 2.67 1.36 2.34 0 2 C0 1.34 0 0.68 0 0 Z " fill="#DBA44A" transform="translate(81,45)"/>
<path d="M0 0 C3.41158256 1.13719419 4.11854601 2.04342944 6 5 C6 5.66 6 6.32 6 7 C7.32 7.66 8.64 8.32 10 9 C7 9 7 9 4.4375 6.75 C2.42724922 4.48202476 1.12774794 2.76810859 0 0 Z " fill="#DDA349" transform="translate(65,56)"/>
<path d="M0 0 C0.33 0 0.66 0 1 0 C1.33 3.96 1.66 7.92 2 12 C0.68 12 -0.64 12 -2 12 C-1.34 8.04 -0.68 4.08 0 0 Z " fill="#EE9B28" transform="translate(82,74)"/>
<path d="M0 0 C0.99 0 1.98 0 3 0 C2.67 2.64 2.34 5.28 2 8 C1.34 8 0.68 8 0 8 C0 5.36 0 2.72 0 0 Z " fill="#F09D28" transform="translate(65,48)"/>
<path d="M0 0 C1 3 1 3 0.0625 5.1875 C-0.4634375 6.0846875 -0.4634375 6.0846875 -1 7 C-1.99 6.67 -2.98 6.34 -4 6 C-3.67 5.01 -3.34 4.02 -3 3 C-2.34 3 -1.68 3 -1 3 C-0.67 2.01 -0.34 1.02 0 0 Z " fill="#FDE8A7" transform="translate(84,39)"/>
</svg>
